<?xml version="1.0" standalone="no"?><!DOCTYPE svg PUBLIC "-//W3C//DTD SVG 1.1//EN" "http://www.w3.org/Graphics/SVG/1.1/DTD/svg11.dtd"
><svg
  t="1558029644203"
  class="icon"
  viewBox="0 0 1024 1024"
  version="1.1"
  xmlns="http://www.w3.org/2000/svg"
  p-id="1968"
  xmlns:xlink="http://www.w3.org/1999/xlink"
  width="128"
  height="128"
>
  <defs><style type="text/css"></style></defs>
  <path
    d="M512 0C229.376 0 0 229.376 0 512s229.376 512 512 512 512-229.376 512-512S794.624 0 512 0z m270.336 407.552L466.944 722.944c-20.48 20.48-53.248 20.48-71.68 0l-145.408-145.408c-20.48-20.48-20.48-53.248 0-71.68 20.48-20.48 53.248-20.48 71.68 0L430.08 614.4l278.528-278.528c20.48-20.48 53.248-20.48 71.68 0s20.48 51.2 2.048 71.68z"
    p-id="1969"
    fill="#ff8e31"
  ></path>
</svg>
