<svg
  height="512pt"
  viewBox="0 0 512 512"
  width="512pt"
  xmlns="http://www.w3.org/2000/svg"
>
  <path
    d="m497 192.800781h-42.988281c-3.527344-11.042969-7.980469-21.78125-13.324219-32.109375l30.414062-30.414062c5.859376-5.855469 5.859376-15.351563 0-21.210938l-68.164062-68.167968c-2.8125-2.8125-6.628906-4.390626-10.605469-4.390626-3.980469 0-7.792969 1.578126-10.605469 4.390626l-30.417968 30.417968c-10.324219-5.34375-21.0625-9.800781-32.105469-13.324218v-42.992188c0-8.285156-6.714844-15-15-15h-96.398437c-8.28125 0-15 6.714844-15 15v42.992188c-11.039063 3.523437-21.78125 7.980468-32.109376 13.320312l-30.417968-30.417969c-2.8125-2.8125-6.628906-4.390625-10.605469-4.390625-3.980469 0-7.792969 1.578125-10.609375 4.390625l-68.164062 68.167969c-5.855469 5.855469-5.855469 15.351562 0 21.210938l30.417968 30.417968c-5.339844 10.328125-9.796875 21.066406-13.320312 32.109375h-42.996094c-8.285156 0-15 6.714844-15 15v96.398438c0 3.980469 1.578125 7.792969 4.394531 10.605469 2.8125 2.816406 6.625 4.394531 10.605469 4.394531h42.992188c3.523437 11.042969 7.980468 21.78125 13.324218 32.109375l-30.417968 30.417968c-5.859376 5.855469-5.859376 15.351563 0 21.210938l68.164062 68.164062c2.8125 2.8125 6.628906 4.394532 10.605469 4.394532 3.980469 0 7.792969-1.582032 10.605469-4.394532l30.417968-30.417968c10.332032 5.34375 21.066406 9.800781 32.109375 13.324218v42.992188c0 8.285156 6.714844 15 15 15h96.398438c8.285156 0 15-6.714844 15-15v-42.988281c11.039062-3.523438 21.777343-7.980469 32.105469-13.324219l30.414062 30.414062c5.859375 5.859376 15.355469 5.859376 21.214844 0l68.164062-68.164062c5.859375-5.855469 5.859375-15.351562 0-21.210938l-30.414062-30.417968c5.34375-10.328125 9.800781-21.066406 13.324218-32.109375h42.992188c8.285156 0 15-6.714844 15-15v-96.398438c0-8.285156-6.714844-15-15-15zm-207.796875 63.199219c0 18.308594-14.894531 33.199219-33.199219 33.199219-18.308594 0-33.199218-14.894531-33.199218-33.199219s14.890624-33.199219 33.199218-33.199219c18.304688 0 33.199219 14.894531 33.199219 33.199219zm0 0"
    fill="#aeb3c7"
  />
  <path
    d="m497 192.800781h-42.988281c-3.527344-11.042969-7.980469-21.78125-13.324219-32.109375l30.414062-30.414062c5.859376-5.855469 5.859376-15.351563 0-21.210938l-68.164062-68.167968c-2.8125-2.8125-6.628906-4.390626-10.605469-4.390626-3.980469 0-7.792969 1.578126-10.605469 4.390626l-30.417968 30.417968c-10.324219-5.34375-21.0625-9.800781-32.105469-13.324218v-42.992188c0-8.285156-6.714844-15-15-15h-48.199219v222.800781c18.308594 0 33.199219 14.894531 33.199219 33.199219 0 18.308594-14.890625 33.199219-33.199219 33.199219v222.800781h48.195313c8.285156 0 15-6.714844 15-15v-42.988281c11.039062-3.523438 21.777343-7.980469 32.105469-13.324219l30.417968 30.414062c5.855469 5.859376 15.351563 5.859376 21.210938 0l68.167968-68.164062c5.855469-5.855469 5.855469-15.351562 0-21.210938l-30.414062-30.417968c5.34375-10.328125 9.796875-21.066406 13.324219-32.109375h42.988281c8.285156 0 15-6.714844 15-15v-96.398438c0-8.285156-6.714844-15-15-15zm0 0"
    fill="#9196aa"
  />
  <path
    d="m256.003906 391.5c-74.714844 0-135.5-60.785156-135.5-135.5s60.785156-135.5 135.5-135.5 135.5 60.785156 135.5 135.5-60.785156 135.5-135.5 135.5zm0-241c-58.175781 0-105.5 47.328125-105.5 105.5s47.324219 105.5 105.5 105.5c58.171875 0 105.5-47.328125 105.5-105.5s-47.328125-105.5-105.5-105.5zm0 0"
    fill="#6f7687"
  />
  <path
    d="m256.003906 120.5v30c58.171875 0 105.5 47.328125 105.5 105.5s-47.328125 105.5-105.5 105.5v30c74.714844 0 135.5-60.785156 135.5-135.5s-60.785156-135.5-135.5-135.5zm0 0"
    fill="#555a66"
  />
</svg>
