<?xml version="1.0" standalone="no"?><!DOCTYPE svg PUBLIC "-//W3C//DTD SVG 1.1//EN" "http://www.w3.org/Graphics/SVG/1.1/DTD/svg11.dtd"><svg t="1557849169912" class="icon" style="" viewBox="0 0 1024 1024" version="1.1" xmlns="http://www.w3.org/2000/svg" p-id="13336" xmlns:xlink="http://www.w3.org/1999/xlink" width="200" height="200"><defs><style type="text/css"></style></defs><path d="M51.2 905.5232v-403.456h921.6v403.456H51.2z m197.888-285.2864H340.48v-45.1584H248.0128c-42.5984 0-74.0352 11.1104-94.3104 33.3824-20.3264 22.272-30.464 56.832-30.464 103.5776 0 24.1664 3.4304 44.8512 10.24 62.208 6.7072 17.3568 16.896 31.4368 30.464 42.1888 10.4448 8.448 21.6064 14.3872 33.4848 17.92 11.8784 3.584 28.16 5.3248 48.9472 5.3248h94.1568v-46.08H249.088c-23.9104 0-40.704-5.9392-50.432-17.8176-9.728-11.8784-14.5408-32.3584-14.5408-61.3888 0-33.4848 5.0688-57.5488 15.2064-72.192 10.1376-14.6432 26.7264-21.9648 49.7664-21.9648z m356.0448 2.048v-47.2064H459.52c-32.256 0-55.808 6.5024-70.656 19.456-14.848 12.9536-22.2208 33.4848-22.2208 61.5424 0 26.2656 7.0144 45.5168 21.1456 57.7024 14.08 12.1856 36.352 18.2784 66.8672 18.2784h65.6896c14.3872 0 24.576 2.304 30.5152 7.0144 5.9392 4.6592 8.9088 12.544 8.9088 23.552 0 10.7008-3.2256 18.3296-9.728 22.9888-6.5024 4.608-17.664 6.912-33.4848 6.912H377.2416v47.1552h148.1216c31.9488 0 55.296-6.4 70.1952-19.1488 14.8992-12.8 22.3232-32.768 22.3232-60.0576 0-26.88-6.4512-46.08-19.3536-57.6-12.9024-11.52-34.56-17.2544-65.024-17.2544H459.8784c-11.6736 0-20.4288-2.4064-26.3168-7.2192-5.8368-4.8128-8.8064-11.9808-8.8064-21.6064 0-11.9808 3.4304-20.736 10.3424-26.2656 6.912-5.5296 17.7664-8.2944 32.512-8.2944h137.5232zM735.744 839.68h57.6l110.5408-264.6016h-59.2384l-81.5616 197.12-79.5136-197.12h-63.1808L735.744 839.68zM444.416 471.04H399.36V417.792H241.664V471.04H174.08V163.9936C174.08 129.9456 201.4208 102.4 235.264 102.4h553.472c33.792 0 61.184 27.4432 61.184 61.5936V471.04h-67.584V417.792H624.64V471.04h-45.056V417.792H444.416V471.04z m0-98.304h135.168V237.568h45.056v135.168h157.696V237.568H241.664v135.168H399.36V237.568h45.056v135.168z" p-id="13337"></path></svg>