<?xml version="1.0" standalone="no"?><!DOCTYPE svg PUBLIC "-//W3C//DTD SVG 1.1//EN" "http://www.w3.org/Graphics/SVG/1.1/DTD/svg11.dtd"
><svg
  t="1558125790030"
  class="icon"
  viewBox="0 0 1365 1024"
  version="1.1"
  xmlns="http://www.w3.org/2000/svg"
  p-id="2846"
  xmlns:xlink="http://www.w3.org/1999/xlink"
  width="21.328125"
  height="16"
>
  <defs><style type="text/css"></style></defs>
  <path
    d="M769.0496 979.370667c0 45.824 29.098667 58.368 64.853333 28.16l504.490667-440.32a69.290667 69.290667 0 0 0 0-109.568L833.902933 16.469333c-35.84-30.293333-64.853333-17.578667-64.853333 28.16V341.333333h-85.333333c-325.973333 0-604.757333 270.165333-672.682667 562.005334-5.034667 21.674667-8.533333 43.605333-10.666667 65.706666-2.56 22.869333 8.533333 27.904 24.832 11.861334 0 0 4.608-4.096 8.533334-8.533334a977.92 977.92 0 0 1 650.24-290.133333h85.333333l-0.256 297.216z"
    p-id="2847"
    fill="#ffffff"
  ></path>
</svg>
