<?xml version="1.0" standalone="no"?><!DOCTYPE svg PUBLIC "-//W3C//DTD SVG 1.1//EN" "http://www.w3.org/Graphics/SVG/1.1/DTD/svg11.dtd"><svg t="1557848879724" class="icon" style="" viewBox="0 0 1024 1024" version="1.1" xmlns="http://www.w3.org/2000/svg" p-id="9621" xmlns:xlink="http://www.w3.org/1999/xlink" width="200" height="200"><defs><style type="text/css"></style></defs><path d="M931.016259 889.972471 34.502815 889.972471c-19.040658 0-34.481326 15.440667-34.481326 34.481326s15.440667 34.481326 34.481326 34.481326l896.514467 0c19.040658 0 34.481326-15.440667 34.481326-34.481326S950.056917 889.972471 931.016259 889.972471z" p-id="9622"></path><path d="M34.502815 752.048191l689.626513 0c19.040658 0 34.481326-15.440667 34.481326-34.481326s-15.440667-34.481326-34.481326-34.481326L34.502815 683.08554c-19.040658 0-34.481326 15.440667-34.481326 34.481326S15.462157 752.048191 34.502815 752.048191z" p-id="9623"></path><path d="M34.502815 545.160237l896.514467 0c19.040658 0 34.481326-15.440667 34.481326-34.481326s-15.440667-34.481326-34.481326-34.481326L34.502815 476.197586c-19.040658 0-34.481326 15.440667-34.481326 34.481326S15.462157 545.160237 34.502815 545.160237z" p-id="9624"></path><path d="M34.502815 338.272283l689.626513 0c19.040658 0 34.481326-15.440667 34.481326-34.481326 0-19.040658-15.440667-34.481326-34.481326-34.481326L34.502815 269.309632c-19.040658 0-34.481326 15.440667-34.481326 34.481326C0.021489 322.831616 15.462157 338.272283 34.502815 338.272283z" p-id="9625"></path><path d="M34.502815 131.384329l896.514467 0c19.040658 0 34.481326-15.440667 34.481326-34.481326 0-19.040658-15.440667-34.481326-34.481326-34.481326L34.502815 62.421678c-19.040658 0-34.481326 15.440667-34.481326 34.481326C0.021489 115.943662 15.462157 131.384329 34.502815 131.384329z" p-id="9626"></path></svg>