<?xml version="1.0" standalone="no"?><!DOCTYPE svg PUBLIC "-//W3C//DTD SVG 1.1//EN" "http://www.w3.org/Graphics/SVG/1.1/DTD/svg11.dtd"
><svg
  t="1558131936667"
  class="icon"
  viewBox="0 0 1080 1024"
  version="1.1"
  xmlns="http://www.w3.org/2000/svg"
  p-id="3166"
  xmlns:xlink="http://www.w3.org/1999/xlink"
  width="16.875"
  height="16"
>
  <defs><style type="text/css"></style></defs>
  <path
    d="M993.393778 73.102222A170.496 170.496 0 0 0 853.333333 0H170.666667a170.666667 170.666667 0 0 0-170.666667 170.666667v674.360889a170.666667 170.666667 0 0 0 170.666667 170.666666h682.666666a170.666667 170.666667 0 0 0 170.666667-170.666666V320.113778L907.150222 457.386667v397.994666a56.888889 56.888889 0 0 1-56.888889 56.888889h-682.666666a56.888889 56.888889 0 0 1-56.888889-56.888889v-682.666666a56.888889 56.888889 0 0 1 56.888889-56.888889h682.666666a56.888889 56.888889 0 0 1 53.816889 38.286222c22.072889-22.243556 40.732444-40.106667 55.978667-53.646222 7.793778-6.826667 11.548444-10.638222 19.797333-17.749334 5.461333-4.721778 10.012444-7.964444 13.539556-9.671111z"
    p-id="3167"
    fill="#8a8a8a"
  ></path>
  <path
    d="M549.717333 562.631111l463.644445-433.948444s31.175111-28.842667 58.311111-6.257778c8.078222 6.769778 17.408 25.941333-3.640889 56.035555l-484.124444 576.113778s-37.091556 51.598222-81.180445-0.568889L293.831111 467.399111s-24.803556-38.741333 6.257778-62.008889c10.410667-7.793778 34.247111-19.968 63.374222 6.599111L549.717333 562.631111z"
    p-id="3168"
    fill="#8a8a8a"
  ></path>
</svg>
