<?xml version="1.0" standalone="no"?><!DOCTYPE svg PUBLIC "-//W3C//DTD SVG 1.1//EN" "http://www.w3.org/Graphics/SVG/1.1/DTD/svg11.dtd"
><svg
  t="1558125871973"
  class="icon"
  viewBox="0 0 1024 1024"
  version="1.1"
  xmlns="http://www.w3.org/2000/svg"
  p-id="3709"
  xmlns:xlink="http://www.w3.org/1999/xlink"
  width="16"
  height="16"
>
  <defs><style type="text/css"></style></defs>
  <path
    d="M896 288l64 0L960 256l32 0L992 224c0-70.56-57.408-128-128-128l-132.544 0c-14.304-55.072-64-96-123.456-96l-192 0c-59.456 0-109.152 40.928-123.456 96L160 96C89.408 96 32 153.44 32 224l0 32 32 0 0 32 64 0 0 608c0 70.56 57.408 128 128 128l512 0c70.592 0 128-57.44 128-128L896 288z"
    p-id="3710"
    fill="#ffffff"
  ></path>
  <path
    d="M416 64l192 0c23.552 0 44 12.96 55.104 32l-302.176 0C372 76.96 392.448 64 416 64z"
    p-id="3711"
    fill="#ffffff"
  ></path>
  <path
    d="M832 896c0 35.328-28.704 64-64 64L256 960c-35.296 0-68.448-28.672-68.448-64L192 288l640 0L832 896z"
    p-id="3712"
    fill="#ffffff"
  ></path>
  <path
    d="M864 160c35.296 0 64 28.672 64 64l-76.224 0-160 0L332.224 224l-160 0L96 224c0-35.328 28.704-64 64-64L864 160z"
    p-id="3713"
    fill="#ffffff"
  ></path>
  <path
    d="M320 832c17.696 0 32-14.304 32-32L352 448c0-17.696-14.304-32-32-32s-32 14.304-32 32l0 352C288 817.696 302.304 832 320 832z"
    p-id="3714"
    fill="#ffffff"
  ></path>
  <path
    d="M512 832c17.696 0 32-14.304 32-32L544 448c0-17.696-14.304-32-32-32s-32 14.304-32 32l0 352C480 817.696 494.304 832 512 832z"
    p-id="3715"
    fill="#ffffff"
  ></path>
  <path
    d="M704 832c17.696 0 32-14.304 32-32L736 448c0-17.696-14.304-32-32-32s-32 14.304-32 32l0 352C672 817.696 686.304 832 704 832z"
    p-id="3716"
    fill="#ffffff"
  ></path>
</svg>
